{"asset":{"generator":"glTF-Transform v4.4.1","version":"2.0"},"accessors":[{"type":"VEC3","componentType":5126,"count":1144,"max":[0.16179822385311127,0.33000001311302185,0.18545401096343994],"min":[-0.16179822385311127,-0.33000001311302185,0],"bufferView":0,"byteOffset":0},{"type":"VEC3","componentType":5126,"count":1144,"bufferView":0,"byteOffset":12},{"type":"SCALAR","componentType":5123,"count":1716,"bufferView":1,"byteOffset":0},{"type":"SCALAR","componentType":5123,"count":180,"bufferView":1,"byteOffset":3432},{"type":"SCALAR","componentType":5123,"count":288,"bufferView":1,"byteOffset":3792},{"type":"SCALAR","componentType":5123,"count":312,"bufferView":1,"byteOffset":4368},{"type":"VEC3","componentType":5126,"count":124,"max":[0.14656290411949158,0.2678854167461395,0.14175882935523987],"min":[-0.14656290411949158,-0.28122392296791077,0.05032399296760559],"bufferView":2,"byteOffset":0},{"type":"VEC3","componentType":5126,"count":124,"bufferView":2,"byteOffset":12},{"type":"VEC3","componentType":5126,"count":192,"max":[0.04585498571395874,0.033162783831357956,0.21784305572509766],"min":[-0.04647664725780487,-0.0767253190279007,0.17167724668979645],"bufferView":3,"byteOffset":0},{"type":"VEC3","componentType":5126,"count":192,"bufferView":3,"byteOffset":12},{"type":"VEC3","componentType":5126,"count":208,"max":[0.07668384909629822,0.051793038845062256,0.12611913681030273],"min":[-0.0748487263917923,-0.052719663828611374,0.07964082807302475],"bufferView":4,"byteOffset":0},{"type":"VEC3","componentType":5126,"count":208,"bufferView":4,"byteOffset":12}],"bufferViews":[{"buffer":0,"byteOffset":0,"byteLength":27456,"byteStride":24,"target":34962},{"buffer":0,"byteOffset":27456,"byteLength":4992,"target":34963},{"buffer":0,"byteOffset":32448,"byteLength":2976,"byteStride":24,"target":34962},{"buffer":0,"byteOffset":35424,"byteLength":4608,"byteStride":24,"target":34962},{"buffer":0,"byteOffset":40032,"byteLength":4992,"byteStride":24,"target":34962}],"buffers":[{"uri":"data:application/octet-stream;base64,","byteLength":45024}],"materials":[{"name":"LightBlue","pbrMetallicRoughness":{"baseColorFactor":[0.48,0.66,0.86,1],"roughnessFactor":0.9,"metallicFactor":0}},{"name":"Green","pbrMetallicRoughness":{"baseColorFactor":[0.2,0.55,0.26,1],"roughnessFactor":0.9,"metallicFactor":0}},{"name":"LightGold","pbrMetallicRoughness":{"baseColorFactor":[0.93,0.8,0.42,1],"roughnessFactor":0.9,"metallicFactor":0}},{"name":"Gold","pbrMetallicRoughness":{"baseColorFactor":[0.83,0.66,0.22,1],"roughnessFactor":0.9,"metallicFactor":0}}],"meshes":[{"name":"Shield_Celtic_Golden","primitives":[{"attributes":{"POSITION":0,"NORMAL":1},"mode":4,"material":0,"indices":2},{"attributes":{"POSITION":6,"NORMAL":7},"mode":4,"material":1,"indices":3},{"attributes":{"POSITION":8,"NORMAL":9},"mode":4,"material":2,"indices":4},{"attributes":{"POSITION":10,"NORMAL":11},"mode":4,"material":3,"indices":5}]}],"nodes":[{"name":"Shield_Celtic_Golden","mesh":0}],"scenes":[{"name":"Shield_Celtic_Golden","nodes":[0]}]}