{"asset":{"generator":"glTF-Transform v4.4.1","version":"2.0"},"accessors":[{"type":"VEC3","componentType":5126,"count":1010,"max":[0.24244201183319092,0.3100000023841858,0.14333130419254303],"min":[-0.24244201183319092,-0.3100000023841858,0.06596458703279495],"bufferView":0,"byteOffset":0},{"type":"VEC3","componentType":5126,"count":1010,"bufferView":0,"byteOffset":12},{"type":"SCALAR","componentType":5123,"count":1554,"bufferView":1,"byteOffset":0},{"type":"SCALAR","componentType":5123,"count":336,"bufferView":1,"byteOffset":3108},{"type":"SCALAR","componentType":5123,"count":2646,"bufferView":1,"byteOffset":3780},{"type":"SCALAR","componentType":5123,"count":1368,"bufferView":1,"byteOffset":9072},{"type":"VEC3","componentType":5126,"count":224,"max":[0.19721968472003937,0.25243785977363586,0.09660381078720093],"min":[-0.19721968472003937,-0.26369377970695496,0],"bufferView":2,"byteOffset":0},{"type":"VEC3","componentType":5126,"count":224,"bufferView":2,"byteOffset":12},{"type":"VEC3","componentType":5126,"count":1666,"max":[0.22645066678524017,0.28641965985298157,0.14438612759113312],"min":[-0.22645066678524017,-0.2922726571559906,0.11095894873142242],"bufferView":3,"byteOffset":0},{"type":"VEC3","componentType":5126,"count":1666,"bufferView":3,"byteOffset":12},{"type":"VEC3","componentType":5126,"count":912,"max":[0.2148793339729309,0.2792220711708069,0.11633751541376114],"min":[-0.2148793339729309,-0.28323301672935486,0.08790358901023865],"bufferView":4,"byteOffset":0},{"type":"VEC3","componentType":5126,"count":912,"bufferView":4,"byteOffset":12}],"bufferViews":[{"buffer":0,"byteOffset":0,"byteLength":24240,"byteStride":24,"target":34962},{"buffer":0,"byteOffset":24240,"byteLength":11808,"target":34963},{"buffer":0,"byteOffset":36048,"byteLength":5376,"byteStride":24,"target":34962},{"buffer":0,"byteOffset":41424,"byteLength":39984,"byteStride":24,"target":34962},{"buffer":0,"byteOffset":81408,"byteLength":21888,"byteStride":24,"target":34962}],"buffers":[{"uri":"data:application/octet-stream;base64,","byteLength":103296}],"materials":[{"name":"Steel_Steel","pbrMetallicRoughness":{"baseColorFactor":[0.62,0.62,0.62,1],"roughnessFactor":0.55,"metallicFactor":0}},{"name":"DarkWood","pbrMetallicRoughness":{"baseColorFactor":[0.3,0.2,0.1,1],"roughnessFactor":0.9,"metallicFactor":0}},{"name":"LightSteel_Steel","pbrMetallicRoughness":{"baseColorFactor":[0.85,0.85,0.85,1],"roughnessFactor":0.55,"metallicFactor":0}},{"name":"LightWood","pbrMetallicRoughness":{"baseColorFactor":[0.6,0.44,0.24,1],"roughnessFactor":0.9,"metallicFactor":0}}],"meshes":[{"name":"Shield_Heater","primitives":[{"attributes":{"POSITION":0,"NORMAL":1},"mode":4,"material":0,"indices":2},{"attributes":{"POSITION":6,"NORMAL":7},"mode":4,"material":1,"indices":3},{"attributes":{"POSITION":8,"NORMAL":9},"mode":4,"material":2,"indices":4},{"attributes":{"POSITION":10,"NORMAL":11},"mode":4,"material":3,"indices":5}]}],"nodes":[{"name":"Shield_Heater","mesh":0}],"scenes":[{"name":"Shield_Heater","nodes":[0]}]}