{"asset":{"generator":"glTF-Transform v4.4.1","version":"2.0"},"accessors":[{"type":"VEC3","componentType":5126,"count":696,"max":[0.2542913258075714,0.27503734827041626,0.18713995814323425],"min":[-0.2526106536388397,-0.2631785273551941,0.10821299254894257],"bufferView":0,"byteOffset":0},{"type":"VEC3","componentType":5126,"count":696,"bufferView":0,"byteOffset":12},{"type":"SCALAR","componentType":5123,"count":1044,"bufferView":1,"byteOffset":0},{"type":"SCALAR","componentType":5123,"count":714,"bufferView":1,"byteOffset":2088},{"type":"SCALAR","componentType":5123,"count":642,"bufferView":1,"byteOffset":3516},{"type":"SCALAR","componentType":5123,"count":768,"bufferView":1,"byteOffset":4800},{"type":"VEC3","componentType":5126,"count":464,"max":[0.3100000023841858,0.3100000023841858,0.15897461771965027],"min":[-0.3100000023841858,-0.3100000023841858,0.07714425027370453],"bufferView":2,"byteOffset":0},{"type":"VEC3","componentType":5126,"count":464,"bufferView":2,"byteOffset":12},{"type":"VEC3","componentType":5126,"count":416,"max":[0.24991239607334137,0.24991238117218018,0.1498638093471527],"min":[-0.24991236627101898,-0.24991238117218018,0],"bufferView":3,"byteOffset":0},{"type":"VEC3","componentType":5126,"count":416,"bufferView":3,"byteOffset":12},{"type":"VEC3","componentType":5126,"count":480,"max":[0.28912749886512756,0.28912752866744995,0.17592023313045502],"min":[-0.28912752866744995,-0.28912752866744995,0.14230932295322418],"bufferView":4,"byteOffset":0},{"type":"VEC3","componentType":5126,"count":480,"bufferView":4,"byteOffset":12}],"bufferViews":[{"buffer":0,"byteOffset":0,"byteLength":16704,"byteStride":24,"target":34962},{"buffer":0,"byteOffset":16704,"byteLength":6336,"target":34963},{"buffer":0,"byteOffset":23040,"byteLength":11136,"byteStride":24,"target":34962},{"buffer":0,"byteOffset":34176,"byteLength":9984,"byteStride":24,"target":34962},{"buffer":0,"byteOffset":44160,"byteLength":11520,"byteStride":24,"target":34962}],"buffers":[{"uri":"data:application/octet-stream;base64,","byteLength":55680}],"materials":[{"name":"LightWood","pbrMetallicRoughness":{"baseColorFactor":[0.6,0.44,0.24,1],"roughnessFactor":0.9,"metallicFactor":0}},{"name":"Steel_Steel","pbrMetallicRoughness":{"baseColorFactor":[0.62,0.62,0.62,1],"roughnessFactor":0.55,"metallicFactor":0}},{"name":"DarkWood","pbrMetallicRoughness":{"baseColorFactor":[0.3,0.2,0.1,1],"roughnessFactor":0.9,"metallicFactor":0}},{"name":"LightSteel_Steel","pbrMetallicRoughness":{"baseColorFactor":[0.85,0.85,0.85,1],"roughnessFactor":0.55,"metallicFactor":0}}],"meshes":[{"name":"Shield_Round","primitives":[{"attributes":{"POSITION":0,"NORMAL":1},"mode":4,"material":0,"indices":2},{"attributes":{"POSITION":6,"NORMAL":7},"mode":4,"material":1,"indices":3},{"attributes":{"POSITION":8,"NORMAL":9},"mode":4,"material":2,"indices":4},{"attributes":{"POSITION":10,"NORMAL":11},"mode":4,"material":3,"indices":5}]}],"nodes":[{"name":"Shield_Round","mesh":0}],"scenes":[{"name":"Shield_Round","nodes":[0]}]}