{"asset":{"generator":"glTF-Transform v4.4.1","version":"2.0"},"accessors":[{"type":"VEC4","componentType":5123,"count":395,"normalized":true,"bufferView":0,"byteOffset":0},{"type":"VEC3","componentType":5126,"count":395,"max":[0.2810263931751251,0.2832871079444885,0.13919737935066223],"min":[-0.2826399505138397,-0.28176483511924744,0.02749248780310154],"bufferView":0,"byteOffset":8},{"type":"VEC3","componentType":5126,"count":395,"bufferView":0,"byteOffset":20},{"type":"SCALAR","componentType":5123,"count":1440,"bufferView":1,"byteOffset":0},{"type":"SCALAR","componentType":5123,"count":2352,"bufferView":1,"byteOffset":2880},{"type":"SCALAR","componentType":5123,"count":420,"bufferView":1,"byteOffset":7584},{"type":"VEC4","componentType":5123,"count":851,"normalized":true,"bufferView":2,"byteOffset":0},{"type":"VEC3","componentType":5126,"count":851,"max":[0.30728819966316223,0.3104481101036072,0.17805080115795135],"min":[-0.30728819966316223,-0.3104481101036072,0.018366262316703796],"bufferView":2,"byteOffset":8},{"type":"VEC3","componentType":5126,"count":851,"bufferView":2,"byteOffset":20},{"type":"VEC4","componentType":5123,"count":148,"normalized":true,"bufferView":3,"byteOffset":0},{"type":"VEC3","componentType":5126,"count":148,"max":[0.018362004309892654,0.15646028518676758,0.04415608197450638],"min":[-0.018362004309892654,-0.15646028518676758,-0.0007735927356407046],"bufferView":3,"byteOffset":8},{"type":"VEC3","componentType":5126,"count":148,"bufferView":3,"byteOffset":20}],"bufferViews":[{"buffer":0,"byteOffset":0,"byteLength":12640,"byteStride":32,"target":34962},{"buffer":0,"byteOffset":12640,"byteLength":8424,"target":34963},{"buffer":0,"byteOffset":21064,"byteLength":27232,"byteStride":32,"target":34962},{"buffer":0,"byteOffset":48296,"byteLength":4736,"byteStride":32,"target":34962}],"buffers":[{"uri":"data:application/octet-stream;base64,","byteLength":53032}],"materials":[{"name":"MI_Trim_Furniture_Steel","doubleSided":true,"pbrMetallicRoughness":{"baseColorFactor":[0.55,0.55,0.55,1],"roughnessFactor":0.55,"metallicFactor":0}},{"name":"MI_Trim_Metal_Vertex_Steel","doubleSided":true,"pbrMetallicRoughness":{"baseColorFactor":[0.82,0.82,0.82,1],"roughnessFactor":0.55,"metallicFactor":0}},{"name":"MI_Trim_Props_Steel","doubleSided":true,"pbrMetallicRoughness":{"baseColorFactor":[0.42,0.42,0.42,1],"roughnessFactor":0.55,"metallicFactor":0}}],"meshes":[{"name":"Cube.193","primitives":[{"attributes":{"COLOR_0":0,"POSITION":1,"NORMAL":2},"mode":4,"material":0,"indices":3},{"attributes":{"COLOR_0":6,"POSITION":7,"NORMAL":8},"mode":4,"material":1,"indices":4},{"attributes":{"COLOR_0":9,"POSITION":10,"NORMAL":11},"mode":4,"material":2,"indices":5}]}],"nodes":[{"name":"Shield_Wooden","mesh":0}],"scenes":[{"name":"Scene","nodes":[0]}],"scene":0}