<svg xmlns="http://www.w3.org/2000/svg" viewBox="0 0 512 512">
  <defs>
    <linearGradient id="magic_secateurs_blade" x1="0.2" y1="0" x2="0.9" y2="1">
      <stop offset="0" stop-color="#b8f5c8"/>
      <stop offset="0.45" stop-color="#3fbf72"/>
      <stop offset="1" stop-color="#12693c"/>
    </linearGradient>
    <linearGradient id="magic_secateurs_grip" x1="0.1" y1="0" x2="0.9" y2="1">
      <stop offset="0" stop-color="#2f9d5c"/>
      <stop offset="0.6" stop-color="#186b3c"/>
      <stop offset="1" stop-color="#0b3b22"/>
    </linearGradient>
  </defs>
  <g stroke="#0d2416" stroke-width="13" stroke-linejoin="round" stroke-linecap="round">
    <path d="M212 268 L96 78 C 88 64 100 48 116 54 L288 236 Z" fill="url(#magic_secateurs_blade)"/>
    <path d="M300 268 L416 78 C 424 64 412 48 396 54 L224 236 Z" fill="url(#magic_secateurs_blade)"/>
    <path d="M120 74 L268 250 M392 74 L244 250" stroke="#d8ffe6" stroke-width="8" fill="none"/>
    <path d="M212 292 C 176 330 150 368 150 404 C 150 440 178 462 208 458 C 236 454 246 424 234 398 C 224 376 216 344 226 314 Z" fill="url(#magic_secateurs_grip)"/>
    <path d="M300 292 C 336 330 362 368 362 404 C 362 440 334 462 304 458 C 276 454 266 424 278 398 C 288 376 296 344 286 314 Z" fill="url(#magic_secateurs_grip)"/>
    <circle cx="256" cy="278" r="34" fill="#e9d089"/>
    <circle cx="256" cy="278" r="13" fill="#0d2416" stroke="none"/>
    <path d="M330 150 L344 186 L380 200 L344 214 L330 250 L316 214 L280 200 L316 186 Z" fill="#d8ffe6" stroke-width="9"/>
  </g>
</svg>
