<svg xmlns="http://www.w3.org/2000/svg" viewBox="0 0 512 512">
  <defs>
    <radialGradient id="occult_necklace_body" cx="0.38" cy="0.3" r="0.8">
      <stop offset="0" stop-color="#5a5080"/><stop offset="0.6" stop-color="#2a2040"/><stop offset="1" stop-color="#12101e"/>
    </radialGradient>
  </defs>
  <g stroke="#1a1410" stroke-width="13" stroke-linejoin="round" stroke-linecap="round">
    <!-- Dark chain -->
    <path d="M256 96 C 170 120 120 184 124 252" fill="none" stroke="#3a3060" stroke-width="15"/>
    <path d="M256 96 C 342 120 392 184 388 252" fill="none" stroke="#3a3060" stroke-width="15"/>
    <!-- Pendant body -->
    <path d="M256 248 C 328 256 372 308 372 364 C 372 420 318 460 256 460 C 194 460 140 420 140 364 C 140 308 184 256 256 248 Z" fill="url(#occult_necklace_body)" stroke="#3a3060" stroke-width="10"/>
    <!-- Skull dome -->
    <ellipse cx="256" cy="330" rx="42" ry="36" fill="#3a3060"/>
    <!-- Eye sockets -->
    <ellipse cx="240" cy="328" rx="12" ry="12" fill="#9060d0"/>
    <ellipse cx="272" cy="328" rx="12" ry="12" fill="#9060d0"/>
    <!-- Inner glow eyes -->
    <ellipse cx="240" cy="328" rx="7" ry="7" fill="#c090f0"/>
    <ellipse cx="272" cy="328" rx="7" ry="7" fill="#c090f0"/>
    <!-- Jaw teeth -->
    <path d="M 222 354 L 222 368 L 238 368 L 238 360 L 256 360 L 256 368 L 274 368 L 274 360 L 290 360 L 290 354 Z" fill="#3a3060" stroke="none"/>
    <!-- Highlight -->
    <path d="M 204 278 C 220 266 240 262 256 264" stroke="#5a5080" stroke-width="8" fill="none" opacity="0.6"/>
    <!-- Mount -->
    <ellipse cx="256" cy="250" rx="20" ry="14" fill="#3a3060" stroke="#12101e" stroke-width="10"/>
  </g>
</svg>
