<svg xmlns="http://www.w3.org/2000/svg" viewBox="0 0 512 512">
  <defs>
    <linearGradient id="razorwing_vambraces_b" x1="0.3" y1="0" x2="0.7" y2="1">
      <stop offset="0" stop-color="#a0d878"/><stop offset="0.5" stop-color="#5a8a38"/><stop offset="1" stop-color="#2a4a18"/>
    </linearGradient>
  </defs>
  <g stroke="#1a1410" stroke-width="13" stroke-linejoin="round" stroke-linecap="round">
    <!-- Left vambrace -->
    <path d="M 130 180 C 130 160 144 148 164 146 L 222 146 C 242 148 254 160 254 180 L 254 330 C 254 350 242 362 222 364 L 164 364 C 144 362 130 350 130 330 Z" fill="url(#razorwing_vambraces_b)"/>
    <!-- Razor blade fins jutting from outer edge -->
    <path d="M 130 200 L 92 184 L 130 220 Z" fill="#c8e8a0" stroke="#1a1410" stroke-width="9"/>
    <path d="M 130 256 L 86 250 L 130 286 Z" fill="#c8e8a0" stroke="#1a1410" stroke-width="9"/>
    <path d="M 130 312 L 92 320 L 130 336 Z" fill="#c8e8a0" stroke="#1a1410" stroke-width="9"/>
    <!-- Strap lines -->
    <path d="M 142 200 L 242 200 M 142 320 L 242 320" stroke="#2a4a18" stroke-width="7" fill="none"/>
    <path d="M 158 200 C 158 260 158 300 160 320" stroke="#a0d878" stroke-width="6" fill="none" stroke-linecap="round"/>
    <!-- Right vambrace -->
    <path d="M 280 180 C 280 160 294 148 314 146 L 372 146 C 392 148 404 160 404 180 L 404 330 C 404 350 392 362 372 364 L 314 364 C 294 362 280 350 280 330 Z" fill="url(#razorwing_vambraces_b)"/>
    <path d="M 280 200 L 380 200 M 280 320 L 380 320" stroke="#2a4a18" stroke-width="7" fill="none"/>
    <path d="M 296 200 C 296 260 296 300 298 320" stroke="#a0d878" stroke-width="6" fill="none" stroke-linecap="round"/>
  </g>
</svg>
