<svg xmlns="http://www.w3.org/2000/svg" viewBox="0 0 512 512">
  <defs>
    <linearGradient id="sw_body" x1="0.3" y1="0" x2="0.7" y2="1">
      <stop offset="0" stop-color="#90d870"/><stop offset="0.5" stop-color="#48a830"/><stop offset="1" stop-color="#246018"/>
    </linearGradient>
  </defs>
  <g stroke="#1a1410" stroke-linejoin="round" stroke-linecap="round">
    <!-- Left frond -->
    <path d="M 210 430 C 194 370 176 300 188 230 C 200 200 218 188 224 210 C 214 250 218 310 228 380 Z" fill="url(#sw_body)" stroke-width="12"/>
    <!-- Center frond -->
    <path d="M 256 440 C 246 372 238 296 252 224 C 258 196 270 190 274 214 C 268 256 268 330 272 400 Z" fill="url(#sw_body)" stroke-width="12"/>
    <!-- Right frond -->
    <path d="M 300 430 C 310 370 326 300 316 230 C 306 200 290 190 286 212 C 294 252 294 316 284 380 Z" fill="url(#sw_body)" stroke-width="12"/>
    <!-- Bulb nodes on center frond -->
    <ellipse cx="258" cy="290" rx="16" ry="22" fill="#78c858" stroke-width="8"/>
    <ellipse cx="254" cy="356" rx="14" ry="18" fill="#78c858" stroke-width="8"/>
    <!-- Highlight on left frond -->
    <path d="M 206 240 C 200 280 202 330 206 368" stroke="#b8f090" stroke-width="7" fill="none" opacity="0.5"/>
  </g>
</svg>
