<svg xmlns="http://www.w3.org/2000/svg" viewBox="0 0 512 512">
  <defs>
    <linearGradient id="shardglass_helmet_b" x1="0.25" y1="0" x2="0.75" y2="1">
      <stop offset="0" stop-color="#c0e8ff"/><stop offset="0.5" stop-color="#5090d0"/><stop offset="1" stop-color="#1a5090"/>
    </linearGradient>
  </defs>
  <g stroke="#1a1410" stroke-width="13" stroke-linejoin="round" stroke-linecap="round">
    <!-- Crystalline/glass helm with sharp angular shards -->
    <path d="M 168 288 C 168 164 202 100 256 92 C 310 100 344 164 344 288 L 338 356 C 298 398 214 398 174 356 Z" fill="url(#shardglass_helmet_b)"/>
    <path d="M 158 362 C 200 422 312 422 354 362 C 334 396 298 412 256 414 C 214 412 178 396 158 362 Z" fill="#1a5090"/>
    <!-- Glass shard crack patterns -->
    <path d="M 200 120 L 230 180 L 200 230 M 230 180 L 270 160 L 312 120" stroke="#e0f4ff" stroke-width="7" fill="none"/>
    <path d="M 270 160 L 256 240 M 200 230 L 256 240 L 312 210" stroke="#e0f4ff" stroke-width="6" fill="none"/>
    <path d="M 186 300 L 230 280 L 256 320 L 282 280 L 326 300" stroke="#e0f4ff" stroke-width="6" fill="none"/>
    <!-- Visor — transparent glass shard pattern -->
    <path d="M 192 236 L 256 218 L 320 236 L 320 266 L 256 248 L 192 266 Z" fill="#a0d8f8" stroke="#1a1410" stroke-width="10"/>
    <!-- Glass highlight facets on body -->
    <path d="M 186 200 L 220 180 L 220 240 Z" fill="#e0f4ff" stroke="none"/>
    <path d="M 326 200 L 292 180 L 292 240 Z" fill="#e0f4ff" stroke="none"/>
    <!-- Crystal tip -->
    <path d="M 244 92 L 256 62 L 268 92 L 256 80 Z" fill="#c0e8ff" stroke="#1a1410" stroke-width="9"/>
  </g>
</svg>
