<svg xmlns="http://www.w3.org/2000/svg" viewBox="0 0 512 512">
<defs><linearGradient id="sunbound_zealot_helm_metal" x1="0" y1="0" x2="1" y2="1"><stop offset="0" stop-color="#ffe59a"/><stop offset=".38" stop-color="#d49a32"/><stop offset="1" stop-color="#6c351c"/></linearGradient><linearGradient id="sunbound_zealot_helm_ember" x1="0" y1="0" x2="0" y2="1"><stop offset="0" stop-color="#fff0a0"/><stop offset=".5" stop-color="#ed7428"/><stop offset="1" stop-color="#8b2019"/></linearGradient></defs>
<g stroke="#1a1410" stroke-width="13" stroke-linejoin="round" stroke-linecap="round"><path d="M256 54c58 10 108 51 128 111l-24 225-67 61h-74l-67-61-24-225c20-60 70-101 128-111z" fill="url(#sunbound_zealot_helm_metal)"/><path d="M256 54 211 149h90z" fill="url(#sunbound_zealot_helm_ember)"/><path d="m143 204 87 23-11 47-78 7zM369 204l-87 23 11 47 78 7z" fill="#2a1b16"/><path d="M218 318h76l-10 99h-56z" fill="#5e341f"/><path d="m256 157 22 40-22 22-22-22z" fill="#fff0a0"/></g><path d="M169 233h48M343 233h-48" stroke="#fff3b0" stroke-width="10" stroke-linecap="round"/></svg>
