{"asset":{"generator":"glTF-Transform v4.4.1","version":"2.0"},"accessors":[{"type":"VEC3","componentType":5126,"count":403,"max":[0.11863575130701065,0.32951441407203674,0.0329098105430603],"min":[-0.11863575130701065,-0.25600001215934753,-0.0329098105430603],"bufferView":0,"byteOffset":0},{"type":"VEC3","componentType":5126,"count":403,"bufferView":0,"byteOffset":12},{"type":"SCALAR","componentType":5123,"count":591,"bufferView":1,"byteOffset":0},{"type":"SCALAR","componentType":5123,"count":288,"bufferView":1,"byteOffset":1184},{"type":"SCALAR","componentType":5123,"count":720,"bufferView":1,"byteOffset":1760},{"type":"SCALAR","componentType":5123,"count":492,"bufferView":1,"byteOffset":3200},{"type":"SCALAR","componentType":5123,"count":1008,"bufferView":1,"byteOffset":4184},{"type":"VEC3","componentType":5126,"count":192,"max":[0.023156045004725456,0.17521683871746063,0.02313956245779991],"min":[-0.023156045004725456,-0.12203942239284515,-0.02313956245779991],"bufferView":2,"byteOffset":0},{"type":"VEC3","componentType":5126,"count":192,"bufferView":2,"byteOffset":12},{"type":"VEC3","componentType":5126,"count":480,"max":[0.03003070317208767,0.17179735004901886,0.030030645430088043],"min":[-0.03003070317208767,-0.11607066541910172,-0.030030645430088043],"bufferView":3,"byteOffset":0},{"type":"VEC3","componentType":5126,"count":480,"bufferView":3,"byteOffset":12},{"type":"VEC3","componentType":5126,"count":332,"max":[0.05992838740348816,1.343999981880188,0.006769368425011635],"min":[-0.05992838740348816,0.2629072368144989,-0.006769368425011635],"bufferView":4,"byteOffset":0},{"type":"VEC3","componentType":5126,"count":332,"bufferView":4,"byteOffset":12},{"type":"VEC3","componentType":5126,"count":672,"max":[0.05127304419875145,1.3155823945999146,0.006769368425011635],"min":[-0.05127304419875145,0.2629072368144989,-0.006769368425011635],"bufferView":5,"byteOffset":0},{"type":"VEC3","componentType":5126,"count":672,"bufferView":5,"byteOffset":12}],"bufferViews":[{"buffer":0,"byteOffset":0,"byteLength":9672,"byteStride":24,"target":34962},{"buffer":0,"byteOffset":9672,"byteLength":6200,"target":34963},{"buffer":0,"byteOffset":15872,"byteLength":4608,"byteStride":24,"target":34962},{"buffer":0,"byteOffset":20480,"byteLength":11520,"byteStride":24,"target":34962},{"buffer":0,"byteOffset":32000,"byteLength":7968,"byteStride":24,"target":34962},{"buffer":0,"byteOffset":39968,"byteLength":16128,"byteStride":24,"target":34962}],"buffers":[{"uri":"data:application/octet-stream;base64,","byteLength":56096}],"materials":[{"name":"DarkSteel_Steel","pbrMetallicRoughness":{"baseColorFactor":[0.42,0.42,0.42,1],"roughnessFactor":0.55,"metallicFactor":0}},{"name":"Black","pbrMetallicRoughness":{"baseColorFactor":[0.07,0.07,0.08,1],"roughnessFactor":0.9,"metallicFactor":0}},{"name":"DarkBrown","pbrMetallicRoughness":{"baseColorFactor":[0.3,0.2,0.1,1],"roughnessFactor":0.9,"metallicFactor":0}},{"name":"LightRed","pbrMetallicRoughness":{"baseColorFactor":[0.85,0.32,0.26,1],"roughnessFactor":0.9,"metallicFactor":0}},{"name":"Red","pbrMetallicRoughness":{"baseColorFactor":[0.68,0.13,0.12,1],"roughnessFactor":0.9,"metallicFactor":0}}],"meshes":[{"name":"Claymore","primitives":[{"attributes":{"POSITION":0,"NORMAL":1},"mode":4,"material":0,"indices":2},{"attributes":{"POSITION":7,"NORMAL":8},"mode":4,"material":1,"indices":3},{"attributes":{"POSITION":9,"NORMAL":10},"mode":4,"material":2,"indices":4},{"attributes":{"POSITION":11,"NORMAL":12},"mode":4,"material":3,"indices":5},{"attributes":{"POSITION":13,"NORMAL":14},"mode":4,"material":4,"indices":6}]}],"nodes":[{"name":"Claymore","mesh":0}],"scenes":[{"name":"Claymore","nodes":[0]}]}