{"asset":{"generator":"glTF-Transform v4.4.1","version":"2.0"},"accessors":[{"type":"VEC3","componentType":5126,"count":150,"max":[0.09787928313016891,1.3020000457763672,0.057598862797021866],"min":[-0.09787928313016891,1.07615065574646,-0.05939556658267975],"bufferView":0,"byteOffset":0},{"type":"VEC3","componentType":5126,"count":150,"bufferView":0,"byteOffset":12},{"type":"SCALAR","componentType":5123,"count":180,"bufferView":1,"byteOffset":0},{"type":"SCALAR","componentType":5123,"count":1008,"bufferView":1,"byteOffset":360},{"type":"VEC3","componentType":5126,"count":680,"max":[0.07292527705430984,1.0780843496322632,0.0692630186676979],"min":[-0.06545697897672653,-0.24799999594688416,-0.0692630186676979],"bufferView":2,"byteOffset":0},{"type":"VEC3","componentType":5126,"count":680,"bufferView":2,"byteOffset":12}],"bufferViews":[{"buffer":0,"byteOffset":0,"byteLength":3600,"byteStride":24,"target":34962},{"buffer":0,"byteOffset":3600,"byteLength":2376,"target":34963},{"buffer":0,"byteOffset":5976,"byteLength":16320,"byteStride":24,"target":34962}],"buffers":[{"uri":"data:application/octet-stream;base64,","byteLength":22296}],"materials":[{"name":"Ice\u0000\u0001Material","pbrMetallicRoughness":{"baseColorFactor":[0.72,0.9,1,1],"roughnessFactor":0.9,"metallicFactor":0}},{"name":"Staff\u0000\u0001Material_Steel","pbrMetallicRoughness":{"baseColorFactor":[0.62,0.62,0.62,1],"roughnessFactor":0.55,"metallicFactor":0}}],"meshes":[{"name":"IceStaff","primitives":[{"attributes":{"POSITION":0,"NORMAL":1},"mode":4,"material":0,"indices":2},{"attributes":{"POSITION":4,"NORMAL":5},"mode":4,"material":1,"indices":3}]}],"nodes":[{"name":"IceStaff","mesh":0}],"scenes":[{"name":"IceStaff","nodes":[0]}]}