{"asset":{"generator":"glTF-Transform v4.4.2","version":"2.0"},"accessors":[{"type":"VEC3","componentType":5126,"count":624,"max":[0.08199462294578552,1.7640000581741333,0.04059593752026558],"min":[-0.18310806155204773,-0.335999995470047,-0.04060598835349083],"bufferView":0,"byteOffset":0},{"type":"VEC3","componentType":5126,"count":624,"bufferView":0,"byteOffset":12},{"type":"SCALAR","componentType":5123,"count":948,"bufferView":1,"byteOffset":0},{"type":"SCALAR","componentType":5123,"count":2016,"bufferView":1,"byteOffset":1896},{"type":"SCALAR","componentType":5123,"count":624,"bufferView":1,"byteOffset":5928},{"type":"SCALAR","componentType":5123,"count":342,"bufferView":1,"byteOffset":7176},{"type":"VEC3","componentType":5126,"count":1344,"max":[0.1888452023267746,1.653350591659546,0.05211756378412247],"min":[-0.1888452023267746,-0.18282735347747803,-0.05211756378412247],"bufferView":2,"byteOffset":0},{"type":"VEC3","componentType":5126,"count":1344,"bufferView":2,"byteOffset":12},{"type":"VEC3","componentType":5126,"count":408,"max":[0.8747568726539612,1.6384333372116089,0.013711713254451752],"min":[-0.23838156461715698,1.3407223224639893,-0.011138399131596088],"bufferView":3,"byteOffset":0},{"type":"VEC3","componentType":5126,"count":408,"bufferView":3,"byteOffset":12},{"type":"VEC3","componentType":5126,"count":230,"max":[0.9010835289955139,1.6389174461364746,0.013711713254451752],"min":[-0.23838156461715698,1.322632074356079,-0.011138399131596088],"bufferView":4,"byteOffset":0},{"type":"VEC3","componentType":5126,"count":230,"bufferView":4,"byteOffset":12}],"bufferViews":[{"buffer":0,"byteOffset":0,"byteLength":14976,"byteStride":24,"target":34962},{"buffer":0,"byteOffset":14976,"byteLength":7860,"target":34963},{"buffer":0,"byteOffset":22836,"byteLength":32256,"byteStride":24,"target":34962},{"buffer":0,"byteOffset":55092,"byteLength":9792,"byteStride":24,"target":34962},{"buffer":0,"byteOffset":64884,"byteLength":5520,"byteStride":24,"target":34962}],"buffers":[{"uri":"data:application/octet-stream;base64,","byteLength":70404}],"materials":[{"name":"DarkWood","pbrMetallicRoughness":{"baseColorFactor":[0.3,0.2,0.1,1],"roughnessFactor":0.9,"metallicFactor":0}},{"name":"LightWood","pbrMetallicRoughness":{"baseColorFactor":[0.6,0.44,0.24,1],"roughnessFactor":0.9,"metallicFactor":0}},{"name":"Steel_Steel","pbrMetallicRoughness":{"baseColorFactor":[0.62,0.62,0.62,1],"roughnessFactor":0.55,"metallicFactor":0}},{"name":"LightSteel_Steel","pbrMetallicRoughness":{"baseColorFactor":[0.85,0.85,0.85,1],"roughnessFactor":0.55,"metallicFactor":0}}],"meshes":[{"name":"Scythe","primitives":[{"attributes":{"POSITION":0,"NORMAL":1},"mode":4,"material":0,"indices":2},{"attributes":{"POSITION":6,"NORMAL":7},"mode":4,"material":1,"indices":3},{"attributes":{"POSITION":8,"NORMAL":9},"mode":4,"material":2,"indices":4},{"attributes":{"POSITION":10,"NORMAL":11},"mode":4,"material":3,"indices":5}]}],"nodes":[{"name":"Scythe","mesh":0}],"scenes":[{"name":"Scythe","nodes":[0]}]}