{"asset":{"generator":"glTF-Transform v4.4.1","version":"2.0"},"accessors":[{"type":"VEC3","componentType":5126,"count":686,"max":[0.05728279799222946,1.313442349433899,0.025949642062187195],"min":[-0.040004912763834,-0.335999995470047,-0.02594970352947712],"bufferView":0,"byteOffset":0},{"type":"VEC3","componentType":5126,"count":686,"bufferView":0,"byteOffset":12},{"type":"SCALAR","componentType":5123,"count":1026,"bufferView":1,"byteOffset":0},{"type":"SCALAR","componentType":5123,"count":2016,"bufferView":1,"byteOffset":2052},{"type":"SCALAR","componentType":5123,"count":276,"bufferView":1,"byteOffset":6084},{"type":"SCALAR","componentType":5123,"count":288,"bufferView":1,"byteOffset":6636},{"type":"VEC3","componentType":5126,"count":1344,"max":[0.03229816257953644,1.3517639636993408,0.03510608524084091],"min":[-0.04058290272951126,-0.13737887144088745,-0.03510608524084091],"bufferView":2,"byteOffset":0},{"type":"VEC3","componentType":5126,"count":1344,"bufferView":2,"byteOffset":12},{"type":"VEC3","componentType":5126,"count":188,"max":[0.03724440932273865,1.7502853870391846,0.012647924944758415],"min":[-0.045480597764253616,1.3513178825378418,-0.012647924944758415],"bufferView":3,"byteOffset":0},{"type":"VEC3","componentType":5126,"count":188,"bufferView":3,"byteOffset":12},{"type":"VEC3","componentType":5126,"count":192,"max":[0.048993196338415146,1.7640000581741333,0.008943433873355389],"min":[-0.05728279799222946,1.351136326789856,-0.008943433873355389],"bufferView":4,"byteOffset":0},{"type":"VEC3","componentType":5126,"count":192,"bufferView":4,"byteOffset":12}],"bufferViews":[{"buffer":0,"byteOffset":0,"byteLength":16464,"byteStride":24,"target":34962},{"buffer":0,"byteOffset":16464,"byteLength":7212,"target":34963},{"buffer":0,"byteOffset":23676,"byteLength":32256,"byteStride":24,"target":34962},{"buffer":0,"byteOffset":55932,"byteLength":4512,"byteStride":24,"target":34962},{"buffer":0,"byteOffset":60444,"byteLength":4608,"byteStride":24,"target":34962}],"buffers":[{"uri":"data:application/octet-stream;base64,","byteLength":65052}],"materials":[{"name":"DarkWood","pbrMetallicRoughness":{"baseColorFactor":[0.3,0.2,0.1,1],"roughnessFactor":0.9,"metallicFactor":0}},{"name":"LightWood","pbrMetallicRoughness":{"baseColorFactor":[0.6,0.44,0.24,1],"roughnessFactor":0.9,"metallicFactor":0}},{"name":"Steel_Steel","pbrMetallicRoughness":{"baseColorFactor":[0.62,0.62,0.62,1],"roughnessFactor":0.55,"metallicFactor":0}},{"name":"LightSteel_Steel","pbrMetallicRoughness":{"baseColorFactor":[0.85,0.85,0.85,1],"roughnessFactor":0.55,"metallicFactor":0}}],"meshes":[{"name":"Spear","primitives":[{"attributes":{"POSITION":0,"NORMAL":1},"mode":4,"material":0,"indices":2},{"attributes":{"POSITION":6,"NORMAL":7},"mode":4,"material":1,"indices":3},{"attributes":{"POSITION":8,"NORMAL":9},"mode":4,"material":2,"indices":4},{"attributes":{"POSITION":10,"NORMAL":11},"mode":4,"material":3,"indices":5}]}],"nodes":[{"name":"Spear","mesh":0}],"scenes":[{"name":"Spear","nodes":[0]}]}