{"asset":{"generator":"glTF-Transform v4.4.1","version":"2.0"},"accessors":[{"type":"VEC3","componentType":5126,"count":240,"max":[0.08985219150781631,1.2213337421417236,0.09576098620891571],"min":[-0.09229631721973419,1.0298118591308594,-0.09576098620891571],"bufferView":0,"byteOffset":0},{"type":"VEC3","componentType":5126,"count":240,"bufferView":0,"byteOffset":12},{"type":"SCALAR","componentType":5123,"count":240,"bufferView":1,"byteOffset":0},{"type":"SCALAR","componentType":5123,"count":528,"bufferView":1,"byteOffset":480},{"type":"VEC3","componentType":5126,"count":352,"max":[0.12961171567440033,1.3020000457763672,0.06266289949417114],"min":[-0.12961171567440033,-0.24799999594688416,-0.06369359791278839],"bufferView":2,"byteOffset":0},{"type":"VEC3","componentType":5126,"count":352,"bufferView":2,"byteOffset":12}],"bufferViews":[{"buffer":0,"byteOffset":0,"byteLength":5760,"byteStride":24,"target":34962},{"buffer":0,"byteOffset":5760,"byteLength":1536,"target":34963},{"buffer":0,"byteOffset":7296,"byteLength":8448,"byteStride":24,"target":34962}],"buffers":[{"uri":"data:application/octet-stream;base64,","byteLength":15744}],"materials":[{"name":"Gem","pbrMetallicRoughness":{"baseColorFactor":[0.3,0.85,0.92,1],"roughnessFactor":0.9,"metallicFactor":0}},{"name":"Wood_Steel","pbrMetallicRoughness":{"baseColorFactor":[0.62,0.62,0.62,1],"roughnessFactor":0.55,"metallicFactor":0}}],"meshes":[{"name":"Staff","primitives":[{"attributes":{"POSITION":0,"NORMAL":1},"mode":4,"material":0,"indices":2},{"attributes":{"POSITION":4,"NORMAL":5},"mode":4,"material":1,"indices":3}]}],"nodes":[{"name":"Staff","mesh":0}],"scenes":[{"name":"Staff","nodes":[0]}]}