{"asset":{"generator":"glTF-Transform v4.4.1","version":"2.0"},"accessors":[{"type":"VEC3","componentType":5126,"count":432,"max":[0.041508276015520096,1.3020000457763672,0.1873137652873993],"min":[-0.041508276015520096,-0.24799999594688416,-0.1873137652873993],"bufferView":0,"byteOffset":0},{"type":"VEC3","componentType":5126,"count":432,"bufferView":0,"byteOffset":12},{"type":"SCALAR","componentType":5123,"count":660,"bufferView":1,"byteOffset":0}],"bufferViews":[{"buffer":0,"byteOffset":0,"byteLength":10368,"byteStride":24,"target":34962},{"buffer":0,"byteOffset":10368,"byteLength":1320,"target":34963}],"buffers":[{"uri":"data:application/octet-stream;base64,","byteLength":11688}],"materials":[{"name":"Wood","pbrMetallicRoughness":{"baseColorFactor":[0.48,0.34,0.18,1],"roughnessFactor":0.9,"metallicFactor":0}}],"meshes":[{"name":"WoodenStaff","primitives":[{"attributes":{"POSITION":0,"NORMAL":1},"mode":4,"material":0,"indices":2}]}],"nodes":[{"name":"WoodenStaff","mesh":0}],"scenes":[{"name":"WoodenStaff","nodes":[0]}]}